<svg width="150" height="150" viewBox="0 0 150 150" fill="none" xmlns="http://www.w3.org/2000/svg">
<g clip-path="url(#clip0_1174_29)">
<mask id="mask0_1174_29" style="mask-type:luminance" maskUnits="userSpaceOnUse" x="0" y="24" width="150" height="103">
<path d="M150 24H0V126.601H150V24Z" fill="white"/>
</mask>
<g mask="url(#mask0_1174_29)">
<path d="M149.096 30.013C149.08 30.0287 149.065 30.0287 149.065 30.0614L149.032 30.0928C148.984 30.1426 148.966 30.1582 148.984 30.1582L102.446 79.0564L91.4853 90.577C91.4656 90.5625 91.4434 90.5519 91.4198 90.5457L91.2262 90.4489L46.405 70.4483L48.0392 69.6881L55.5953 66.145L66.1294 61.2096C66.1481 61.1939 66.17 61.1827 66.1935 61.1769H66.2105L144.818 24.3659C145.569 24.0135 146.418 23.9296 147.224 24.1284C148.028 24.3271 148.742 24.7964 149.243 25.4577C149.744 26.119 150.003 26.9323 149.976 27.7614C149.949 28.5906 149.638 29.3855 149.096 30.013Z" fill="url(#paint0_linear_1174_29)"/>
<g style="mix-blend-mode:multiply" opacity="0.2">
<path d="M0.602695 54.4624H0.619567C0.602685 54.4778 0.602692 54.4933 0.587218 54.5102C0.586021 54.5015 0.586792 54.4927 0.589471 54.4844C0.592151 54.4761 0.596673 54.4686 0.602695 54.4624Z" fill="black"/>
</g>
<g style="mix-blend-mode:multiply" opacity="0.2">
<path d="M91.4913 90.5771C91.4913 90.5771 90.018 90.0433 87.4613 89.0725C84.899 88.0532 81.2476 86.6952 76.8959 84.9143C72.5427 83.1662 67.4778 81.0794 62.0912 78.7818C56.7046 76.4842 50.9749 73.9603 45.2466 71.4364C42.3995 70.141 39.5525 68.8626 36.7524 67.5843C33.9523 66.3387 31.2177 65.022 28.5486 63.7991C23.2417 61.3222 18.3063 58.9592 14.0984 56.8737C11.9787 55.853 10.0698 54.8807 8.35442 54.0095C7.51312 53.5825 6.70455 53.1668 5.99137 52.828C5.35119 52.5265 4.64149 52.4037 3.93723 52.4721C2.91636 52.565 1.95984 53.0111 1.23251 53.7334C1.16861 53.794 1.10914 53.8592 1.05457 53.9284C1.00475 53.9768 0.956359 54.0409 0.91223 54.0893C0.864922 54.1328 0.821567 54.1805 0.782684 54.2316C1.34956 53.316 2.23288 52.6405 3.26497 52.3332C4.29707 52.0259 5.40605 52.1083 6.38141 52.5647L46.4139 70.4442L48.0481 69.684C53.1728 71.9972 58.2904 74.3119 63.0805 76.5611C68.3875 79.0366 73.3228 81.4153 77.545 83.4865C81.7672 85.5578 85.2321 87.3528 87.6748 88.5828C89.5026 89.5223 90.7326 90.1686 91.2336 90.4448L91.4273 90.5415C91.4507 90.5492 91.4724 90.5613 91.4913 90.5771Z" fill="black"/>
</g>
<path d="M91.4919 90.5771L73.8401 109.137C73.8277 109.152 73.8172 109.168 73.8088 109.185C73.8088 109.185 73.7917 109.17 73.7917 109.185L59.7144 123.99C59.5107 124.207 59.2949 124.412 59.0682 124.605C58.1826 125.355 57.1514 125.914 56.0393 126.247C54.9273 126.579 53.7584 126.678 52.6063 126.536C51.4543 126.395 50.3441 126.017 49.3453 125.426C48.3466 124.834 47.4809 124.043 46.803 123.1L18.7282 84.1043V84.0887C18.6955 84.0716 18.6955 84.0559 18.6955 84.0559L18.3567 83.5862L0.88142 59.3307C0.375595 58.6596 0.0744009 57.8568 0.0140441 57.0184C-0.0463126 56.1803 0.13674 55.3425 0.541199 54.606C0.556229 54.5869 0.56735 54.5651 0.573933 54.5419L0.580275 54.5407L0.585554 54.5368L0.588833 54.5313L0.589594 54.5249V54.5092C0.588382 54.5004 0.589162 54.4915 0.591874 54.4831C0.594586 54.4747 0.599161 54.4671 0.605255 54.4608H0.622328C0.653645 54.3953 0.719138 54.3313 0.783196 54.2345C1.35007 53.3188 2.2334 52.6432 3.26548 52.3359C4.29757 52.0287 5.40657 52.1111 6.38193 52.5675L46.4144 70.447L91.2356 90.4476L91.4292 90.5444C91.4519 90.5512 91.4732 90.5623 91.4919 90.5771Z" fill="url(#paint1_linear_1174_29)"/>
<g style="mix-blend-mode:multiply" opacity="0.2">
<path d="M102.446 79.0567L91.4853 90.5773C91.4656 90.5628 91.4434 90.5521 91.4198 90.546L46.405 70.4486L48.0392 69.6884L55.5953 66.1453L102.446 79.0567Z" fill="black"/>
</g>
<g style="mix-blend-mode:screen" opacity="0.5">
<path d="M0.602848 54.4624H0.61992C0.602838 54.4937 0.587186 54.5108 0.587186 54.5264C0.584869 54.5039 0.590402 54.4813 0.602848 54.4624Z" fill="white"/>
</g>
<g style="mix-blend-mode:screen" opacity="0.5">
<path d="M91.4913 90.5771C91.4913 90.5771 90.018 90.0433 87.4613 89.0725C84.899 88.0532 81.2476 86.6952 76.8959 84.9143C72.5427 83.1662 67.4778 81.0794 62.0912 78.7818C56.7046 76.4842 50.9749 73.9603 45.2466 71.4364C42.3995 70.141 39.5525 68.8626 36.7524 67.5843C33.9523 66.3387 31.2177 65.022 28.5486 63.7991C23.2417 61.3222 18.3063 58.9592 14.0984 56.8737C11.9787 55.853 10.0698 54.8807 8.35442 54.0095C7.51312 53.5825 6.70455 53.1668 5.99137 52.828C5.35119 52.5265 4.64149 52.4037 3.93723 52.4721C2.91636 52.565 1.95984 53.0111 1.23251 53.7334C1.16861 53.794 1.10914 53.8592 1.05457 53.9284C1.00259 53.9778 0.954977 54.0318 0.91223 54.0893C0.864922 54.1328 0.821567 54.1805 0.782684 54.2316C1.34956 53.316 2.23288 52.6405 3.26497 52.3332C4.29707 52.0259 5.40605 52.1083 6.38141 52.5647L46.4139 70.4442L91.2351 90.4448L91.4287 90.5415C91.4516 90.5494 91.4728 90.5615 91.4913 90.5771Z" fill="white"/>
</g>
<g style="mix-blend-mode:multiply" opacity="0.2">
<path d="M73.789 109.186L59.7117 123.99C59.508 124.207 59.2922 124.413 59.0654 124.605C58.1799 125.355 57.1487 125.915 56.0366 126.247C54.9245 126.579 53.7557 126.678 52.6036 126.536C51.4517 126.395 50.3413 126.017 49.3426 125.426C48.3438 124.834 47.4782 124.043 46.8003 123.101L18.7255 84.1045C18.9205 84.3152 19.7291 85.2689 21.0031 86.8092C22.4267 88.5886 24.5306 91.0969 26.9421 94.1717C29.3536 97.2465 32.1522 100.854 35.0804 104.77C38.0257 108.653 41.0834 112.884 44.1583 117.083L46.4231 120.272L47.5391 121.856L47.831 122.245C47.9048 122.359 47.9861 122.467 48.0744 122.57C48.2451 122.801 48.4357 123.017 48.6438 123.216C49.3897 123.97 50.2925 124.551 51.2881 124.917C52.2837 125.284 53.3478 125.427 54.4048 125.336C55.4384 125.251 56.4423 124.947 57.3501 124.446C57.7845 124.207 58.1912 123.92 58.5629 123.592L58.8875 123.317L59.0156 123.203L59.158 123.041L59.7558 122.459C61.3417 120.873 62.8634 119.401 64.2869 118.046C67.087 115.327 69.5141 113.143 71.164 111.557C72.643 110.211 73.5797 109.356 73.789 109.186Z" fill="black"/>
</g>
<g style="mix-blend-mode:screen" opacity="0.5">
<path d="M149.533 29.2359C149.731 28.7885 149.829 28.3025 149.818 27.813C149.806 27.3235 149.687 26.8425 149.469 26.4045C149.179 25.7521 148.678 25.2155 148.047 24.8801C147.418 24.5448 146.693 24.43 145.99 24.5539C145.105 24.8468 144.258 25.2434 143.466 25.7354C142.544 26.2038 141.572 26.7063 140.568 27.223C136.523 29.3113 131.782 31.6901 126.685 34.1983C124.122 35.4283 121.492 36.7606 118.788 38.0162C116.085 39.2718 113.369 40.5899 110.635 41.8839C105.133 44.4463 99.6308 46.9802 94.4363 49.2948C89.2418 51.6095 84.389 53.7277 80.201 55.4914C76.0102 57.2879 72.4825 58.6631 70.0226 59.6823C67.903 60.5364 66.5437 61.0418 66.2206 61.1713L144.828 24.3603C145.579 24.0114 146.426 23.9302 147.23 24.1303C148.033 24.3304 148.743 24.7997 149.243 25.46C149.742 26.1203 150 26.9318 149.973 27.7592C149.947 28.5867 149.638 29.3801 149.099 30.0075C149.271 29.7672 149.416 29.5084 149.533 29.2359Z" fill="white"/>
</g>
<g style="mix-blend-mode:screen" opacity="0.3">
<path d="M145.812 28.7989L139.906 34.9969C135.651 39.4629 131.401 43.9287 127.156 48.3937L68.4836 63.6853C82.2378 57.2452 95.9986 50.8052 109.766 44.3651C120.72 39.2404 131.681 34.1058 142.649 28.9612C143.701 28.4757 144.753 27.9732 145.805 27.4878C147.093 26.8728 146.36 28.2152 145.812 28.7989Z" fill="white"/>
</g>
<g style="mix-blend-mode:screen" opacity="0.3">
<path d="M86.006 91.662C83.3192 94.4627 80.644 97.2726 77.9802 100.092C77.2357 100.869 76.4926 101.658 75.7481 102.438L4.59866 55.4816C5.41715 55.6274 6.2015 55.9238 6.9119 56.3557C18.434 61.5003 29.9603 66.6459 41.4909 71.7924C56.3306 78.4242 71.169 85.0474 86.006 91.662Z" fill="white"/>
</g>
</g>
</g>
<defs>
<linearGradient id="paint0_linear_1174_29" x1="18.3369" y1="57.3" x2="149.977" y2="57.3" gradientUnits="userSpaceOnUse">
<stop stop-color="#7E5CC8"/>
<stop offset="1" stop-color="#B495FF"/>
</linearGradient>
<linearGradient id="paint1_linear_1174_29" x1="80.9706" y1="76.0503" x2="16.459" y2="101.188" gradientUnits="userSpaceOnUse">
<stop stop-color="#7E5CC8"/>
<stop offset="0.162" stop-color="#9279C9"/>
<stop offset="0.322917" stop-color="#B3A1DA"/>
<stop offset="0.446" stop-color="#C7B9E5"/>
<stop offset="0.581" stop-color="#D7CBF3"/>
<stop offset="0.712" stop-color="#B495FF"/>
<stop offset="0.842" stop-color="#976CFF"/>
<stop offset="0.967" stop-color="#6423FF"/>
<stop offset="1" stop-color="#F80300"/>
</linearGradient>
<clipPath id="clip0_1174_29">
<rect width="150" height="150" fill="white"/>
</clipPath>
</defs>
</svg>
